# xmcd
#
# Track frame offsets: 
#        150
#        18141
#        32501
#        46561
#        63807
#        80353
#        96556
#        114310
#        127144
#        141815
#        156995
#
# Disc length: 2351 seconds
#
# Revision: 0
# Processed by: cddbd v1.5.2PL0 Copyright (c) Steve Scherf et al.
# Submitted via: ExactAudioCopy v0.99pb5
#
DISCID=84092d0b
DTITLE=Houndmouth - Little Neon Limelight
DYEAR=2015
DGENRE=Country
TTITLE0=Sedona
TTITLE1=Otis
TTITLE2=15 Years
TTITLE3=For No One
TTITLE4=Black Gold
TTITLE5=Honey Slider
TTITLE6=My Cousin Greg
TTITLE7=Gasoline
TTITLE8=By God
TTITLE9=Say It
TTITLE10=Darlin'
EXTD=
EXTT0=
EXTT1=
EXTT2=
EXTT3=
EXTT4=
EXTT5=
EXTT6=
EXTT7=
EXTT8=
EXTT9=
EXTT10=
PLAYORDER=
